<?xml version="1.0" encoding="UTF-8" standalone="no"?>
<svg width="434px" height="467px" viewBox="0 0 434 467" version="1.1" xmlns="http://www.w3.org/2000/svg" xmlns:xlink="http://www.w3.org/1999/xlink" xmlns:sketch="http://www.bohemiancoding.com/sketch/ns">
    <!-- Generator: Sketch 3.4 (15588) - http://www.bohemiancoding.com/sketch -->
    <title>Group</title>
    <desc>Created with Sketch.</desc>
    <defs>
        <radialGradient cx="31.4138405%" cy="50.5169211%" fx="31.4138405%" fy="50.5169211%" r="64.1388207%" id="radialGradient-1">
            <stop stop-color="#FFFFFF" offset="0%"></stop>
            <stop stop-color="#FBFBFB" offset="18%"></stop>
            <stop stop-color="#CBCBCB" offset="38.101%"></stop>
            <stop stop-color="#A7A7A7" offset="50%"></stop>
            <stop stop-color="#AAAAAA" offset="57.098%"></stop>
            <stop stop-color="#FFFFFF" offset="100%"></stop>
        </radialGradient>
        <path id="path-2" d="M195.261973,38.4952215 C195.261973,59.4788203 170.004561,112.790258 96.7053403,113.101943 C20.3901297,113.426454 0.191332849,59.4788203 0.191332849,38.4952215 C0.191332849,17.5116227 43.85939,0.501057393 97.7266528,0.501057393 C151.593916,0.501057393 195.261973,17.5116227 195.261973,38.4952215 L195.261973,38.4952215 Z"></path>
        <radialGradient cx="24.4343266%" cy="53.6876459%" fx="24.4343266%" fy="53.6876459%" r="50.1954052%" id="radialGradient-4">
            <stop stop-color="#DAF5DD" offset="0%"></stop>
            <stop stop-color="#DAF5DD" offset="18.395%"></stop>
            <stop stop-color="#8CDF97" offset="42.615%"></stop>
            <stop stop-color="#65D474" offset="70.761%"></stop>
            <stop stop-color="#289236" offset="100%"></stop>
        </radialGradient>
        <linearGradient x1="-3.9983449%" y1="-753.982872%" x2="91.6051756%" y2="-753.982872%" id="linearGradient-5">
            <stop stop-color="#DAF5DD" offset="0%"></stop>
            <stop stop-color="#DAF5DD" offset="24.726%"></stop>
            <stop stop-color="#8CDF97" offset="42.615%"></stop>
            <stop stop-color="#65D474" offset="61.264%"></stop>
            <stop stop-color="#289236" offset="100%"></stop>
        </linearGradient>
        <radialGradient cx="22.2924297%" cy="38.9465738%" fx="22.2924297%" fy="38.9465738%" r="52.815701%" id="radialGradient-6">
            <stop stop-color="#DAF5DD" offset="0%"></stop>
            <stop stop-color="#DAF5DD" offset="14.881%"></stop>
            <stop stop-color="#8CDF97" offset="44.933%"></stop>
            <stop stop-color="#65D474" offset="64.16%"></stop>
            <stop stop-color="#289236" offset="100%"></stop>
        </radialGradient>
        <linearGradient x1="85.4672455%" y1="72.0544627%" x2="61.4954278%" y2="73.8352551%" id="linearGradient-7">
            <stop stop-color="#FFE1E8" offset="0%"></stop>
            <stop stop-color="#FF8DA8" offset="48.564%"></stop>
            <stop stop-color="#FF8DA8" offset="70.068%"></stop>
            <stop stop-color="#DA1443" offset="100%"></stop>
        </linearGradient>
        <linearGradient x1="80.5587855%" y1="71.2804815%" x2="66.7323292%" y2="74.6512544%" id="linearGradient-8">
            <stop stop-color="#FFE1E8" offset="0%"></stop>
            <stop stop-color="#FF8DA8" offset="48.564%"></stop>
            <stop stop-color="#FF8DA8" offset="70.068%"></stop>
            <stop stop-color="#DA1443" offset="100%"></stop>
        </linearGradient>
        <radialGradient cx="32.9878285%" cy="37.7566836%" fx="32.9878285%" fy="37.7566836%" r="51.2196872%" id="radialGradient-9">
            <stop stop-color="#FFFFFF" offset="0%"></stop>
            <stop stop-color="#FBFBFB" offset="18%"></stop>
            <stop stop-color="#CBCBCB" offset="45.049%"></stop>
            <stop stop-color="#A7A7A7" offset="54.451%"></stop>
            <stop stop-color="#AAAAAA" offset="66.102%"></stop>
            <stop stop-color="#FFFFFF" offset="100%"></stop>
        </radialGradient>
    </defs>
    <g id="Page-1" stroke="none" stroke-width="1" fill="none" fill-rule="evenodd" sketch:type="MSPage">
        <g id="Group" sketch:type="MSLayerGroup" transform="translate(-3.000000, -10.000000)">
            <g transform="translate(0.913450, 0.925100)">
                <path d="M189.55543,355.25319 C175.16168,375.83765 150.49754,378.03374 123.93101,363.41826 C112.72596,357.25385 85.17666,347.81098 95.98702,326.62768 C106.201,306.61303 119.46581,313.99258 135.15784,321.97108 C166.41924,337.86569 170.34809,315.91801 181.3952,323.24673 C187.86046,327.53582 199.58544,337.35736 189.55543,355.25319 L189.55543,355.25319 Z" id="Shape" stroke="#000000" stroke-width="8" fill="#000000" sketch:type="MSShapeGroup"></path>
                <path d="M301.005476,435.219985 C301.005476,447.307842 292.067454,457.10699 281.041848,457.10699 C270.016242,457.10699 261.07822,447.307842 261.07822,435.219985 C261.07822,423.132128 270.016242,413.332985 281.041848,413.332985 C292.067454,413.332985 301.005476,423.132128 301.005476,435.219985 L301.005476,435.219985 Z" id="Shape" stroke="#000000" stroke-width="8.05336979" fill="#FFFFFF" sketch:type="MSShapeGroup" transform="translate(281.041848, 435.219987) rotate(3.445163) translate(-281.041848, -435.219987) "></path>
                <path d="M182.21368,430.90047 C182.63023,450.03763 171.52667,449.37243 131.6039,453.81545 C103.64401,456.92712 96.00967,456.17505 93.60673,438.34537 C90.8526,417.90988 100.66043,410.97099 116.54021,409.53609 C157.93866,405.79532 180.84413,398.45652 182.21368,430.90047 L182.21368,430.90047 Z" id="Shape" stroke="#000000" stroke-width="8" fill="#000000" sketch:type="MSShapeGroup"></path>
                <path d="M293.60511,389.46437 C289.26643,435.78404 274.53881,455.18933 230.64938,455.70026 C180.98769,456.27838 144.54531,445.42283 143.10562,405.30436 C141.32066,355.56444 167.39313,331.71855 178.96081,315.6241 C198.49574,288.44458 236.36529,263.28122 254.76044,271.05811 C268.7829,276.98636 300.20179,319.03845 293.60511,389.46437 L293.60511,389.46437 Z" id="Shape" stroke="#000000" stroke-width="8" fill="url(#radialGradient-1)" sketch:type="MSShapeGroup"></path>
                <g transform="translate(166.370270, 443.026700) rotate(-5.574739) translate(-166.370270, -443.026700) translate(65.506718, 333.870127)">
                    <g transform="translate(0.459492, 0.162184)">
                        <g id="Clipped" transform="translate(0.000000, 104.129625)">
                            <mask id="mask-3" sketch:name="Shape" fill="white">
                                <use xlink:href="#path-2"></use>
                            </mask>
                            <g id="Shape"></g>
                            <g id="Group" mask="url(#mask-3)">
                                <g transform="translate(-28.135622, -149.614903)">
                                    <path d="M272.602445,84.7746782 C272.602445,131.320111 211.787255,169.052637 136.767908,169.052637 C61.7485602,169.052637 0.933359456,131.320111 0.933359456,84.7746782 C0.933359456,38.2292457 61.7485602,0.496719856 136.767908,0.496719856 C211.787255,0.496719856 272.602445,38.2292457 272.602445,84.7746782 L272.602445,84.7746782 Z" id="Shape" stroke="#000000" stroke-width="1.03862329" fill="url(#radialGradient-4)" sketch:type="MSShapeGroup"></path>
                                    <g id="Group" stroke="none" stroke-width="1" fill="none" sketch:type="MSLayerGroup" transform="translate(90.785616, 128.460158) rotate(10.459102) translate(-90.785616, -128.460158) translate(44.801410, 106.733803)">
                                        <path d="M16.0750966,0.405392499 C9.08670193,1.55842156 4.73508475,5.54433311 6.52737188,9.35025672 C8.31965902,13.1561803 15.5272403,15.2349169 22.515635,14.0818878 C29.5040297,12.9288587 33.8587316,8.94243882 32.0664445,5.13651522 C30.2741574,1.33059161 23.0634889,-0.747636563 16.0750966,0.405392499 L16.0750966,0.405392499 Z" id="Shape" fill="#000000" sketch:type="MSShapeGroup"></path>
                                        <path d="M39.5925215,0.958515697 C21.1335653,1.47599631 6.58443062,8.98646664 1.87110215,19.2590654 C-0.761955906,24.9977542 0.530808628,30.1063092 5.29147688,34.1160587 C10.0521451,38.1258082 18.2033798,41.01149 29.0844118,42.4853207 C40.467783,44.0271919 52.5871816,43.4818746 62.277764,41.0652975 C71.9683463,38.6487204 79.2811524,34.301775 80.6445027,28.3072761 C83.3355391,16.4750842 70.0991051,2.98075519 47.7280736,1.18039433 C44.9486062,0.956709427 42.2295145,0.884589286 39.5925215,0.958515697 L39.5925215,0.958515697 Z" id="Shape" fill="#000000" sketch:type="MSShapeGroup"></path>
                                        <path d="M39.67485,2.09009673 C42.1984896,2.02127672 44.7991455,2.0884637 47.4661193,2.30310022 C68.6666132,4.00925958 81.2971072,16.928296 78.7434629,28.1563986 C77.4844704,33.6920483 70.7859989,37.7096576 61.5293231,40.0180303 C52.2726473,42.3264031 40.5091184,42.8656129 29.5110231,41.3759276 C18.9564957,39.946322 11.2800911,37.1839309 6.86320269,33.4637355 C2.44631428,29.7435401 1.20266183,25.042316 3.71975107,19.5563828 C8.23432958,9.71695359 22.0093656,2.57183536 39.67485,2.09009673 L39.67485,2.09009673 Z" id="Shape" fill="#FFFFFF" sketch:type="MSShapeGroup"></path>
                                        <path d="M90.3535481,10.7326167 C87.2202681,6.81138578 80.1114882,4.58872279 74.3366407,5.9661922 C68.5617932,7.34366162 66.7092691,11.7038586 69.8425467,15.6250896 C72.9758243,19.5463205 80.0863454,21.7663891 85.8611905,20.3889183 C91.6360357,19.0114474 93.4868257,14.6538476 90.3535481,10.7326167 L90.3535481,10.7326167 Z" id="Shape" fill="#000000" sketch:type="MSShapeGroup"></path>
                                        <path d="M26.2702742,29.5719843 C25.0677321,29.6200805 23.9563465,29.8763308 23.0519785,30.2420577 C21.8461552,30.7296937 20.9561908,31.4143437 20.7767183,32.2034649 C20.5972457,32.992586 21.2337294,33.7368997 22.2361779,34.2713737 C23.2386265,34.8058478 24.6275028,35.1741052 26.2029145,35.3008906 C27.7783262,35.4276759 29.2783454,35.2895304 30.4839962,34.9325721 C31.689647,34.5756137 32.6396592,33.9599768 32.8191317,33.1708557 C32.9986042,32.3817346 32.4461734,31.5814578 31.5018758,30.9210064 C30.5575781,30.260555 29.1643022,29.7327309 27.4977172,29.5986097 C27.0810715,29.5650787 26.6711223,29.5559522 26.2702742,29.5719843 L26.2702742,29.5719843 Z" id="Shape" fill="#000000" sketch:type="MSShapeGroup"></path>
                                        <path d="M17.6856575,17.3065334 C15.0751269,17.4224812 12.1528785,17.9133676 9.09355645,18.8641214 C0.835073189,21.4306345 -1.84338709,26.4359936 1.85613333,29.4743577 C3.10710972,30.5017672 4.57273894,31.4152355 6.39168494,31.9727111 C8.21063094,32.5301867 10.3989235,32.6932209 12.7908543,32.2345279 C16.1290275,31.5943757 17.6180009,30.5678352 18.7259903,29.5808594 C19.8339798,28.5938836 20.6109835,27.6887778 23.0220409,26.8162516 C27.9587137,25.029746 29.5320513,21.6727102 27.2657005,19.5341949 C25.9279553,18.2719078 23.3646615,17.4778819 20.18545,17.310971 C19.3906465,17.2692436 18.5558344,17.2678846 17.6856575,17.3065405 L17.6856575,17.3065334 Z" id="Shape" fill="#000000" sketch:type="MSShapeGroup"></path>
                                        <path d="M46.5230839,20.0090152 C43.2602362,20.1215705 40.4261649,21.0966465 39.0386753,22.9466883 C36.8851654,25.818123 36.7535236,28.4984595 39.9592575,30.8943809 C41.0577579,31.7153844 41.6719992,33.1037838 42.4066591,34.4932524 C43.1413191,35.882721 44.0415485,37.332258 46.2386763,38.1054365 C49.2095842,39.1509102 53.3038814,39.3862151 57.0761,38.744447 C60.8483185,38.1026788 64.3302235,36.5241284 65.7430451,33.9119303 C68.2061484,29.357849 64.6252721,24.4609642 57.1883661,21.8550454 C53.5151597,20.5679392 49.7859315,19.8964599 46.5230839,20.0090152 L46.5230839,20.0090152 Z" id="Shape" fill="#000000" sketch:type="MSShapeGroup"></path>
                                    </g>
                                </g>
                            </g>
                        </g>
                        <path d="M200.03972,38.2524702 C200.03972,59.236069 174.782308,112.5475 101.483088,112.859185 C25.1678769,113.183696 4.96908004,59.236069 4.96908004,38.2524702 C4.96908004,17.2688714 48.6371372,0.258306102 102.5044,0.258306102 C156.371663,0.258306102 200.03972,17.2688714 200.03972,38.2524702 L200.03972,38.2524702 Z" id="Shape" stroke="#000000" stroke-width="9.34759148" sketch:type="MSShapeGroup"></path>
                    </g>
                    <path d="M152.961275,114.918603 C138.48486,131.300025 67.411316,133.467817 52.9665088,115.609406 C54.2484951,111.620904 58.3560093,107.884726 62.2845916,104.040899 C72.0854286,106.031377 85.7125828,110.082989 102.109238,110.082989 C117.91238,110.082989 128.487796,108.295248 141.997439,104.353152 C148.344198,108.55777 152.961275,114.918603 152.961275,114.918603 L152.961275,114.918603 Z" id="Shape" stroke="#000000" stroke-width="9.34759148" fill="url(#linearGradient-5)" sketch:type="MSShapeGroup"></path>
                </g>
                <path d="M238.192089,372.268019 C238.192089,386.862451 202.29723,398.693584 158.018678,398.693584 C113.740125,398.693584 77.8452753,386.862451 77.8452753,372.268019 C77.8452753,357.673586 113.740134,345.842446 158.018678,345.842446 C202.297221,345.842446 238.192089,357.673578 238.192089,372.268019 L238.192089,372.268019 Z" id="Shape" stroke="#000000" stroke-width="9.02327656" fill="url(#radialGradient-6)" sketch:type="MSShapeGroup" transform="translate(158.018682, 372.268015) rotate(-5.574774) translate(-158.018682, -372.268015) "></path>
                <g transform="translate(73.543090, 293.495030) rotate(2.258064) translate(-73.543090, -293.495030) translate(4.329666, 188.016618)" id="Shape" stroke="#000000" stroke-width="9.5994204" sketch:type="MSShapeGroup">
                    <path d="M84.3145929,2.44688649 C79.6534581,-0.686026485 62.235251,0.350060732 59.0799084,6.42247841 L125.836191,204.865938 C129.687778,211.094541 138.420641,209.702166 137.986737,202.778997 C137.671741,201.987756 84.3145929,2.44688649 84.3145929,2.44688649 L84.3145929,2.44688649 Z" fill="url(#linearGradient-7)"></path>
                    <path d="M24.0912139,15.4664611 C18.7311965,13.1250445 1.92265159,16.8644669 0.36530629,23.3091213 L115.951498,207.350584 C121.300646,212.852483 129.507185,210.122183 127.331893,203.405096 C126.823185,202.678912 24.0912139,15.4664611 24.0912139,15.4664611 L24.0912139,15.4664611 Z" fill="url(#linearGradient-8)"></path>
                </g>
                <g transform="translate(42.616330, 0.816460)" stroke="#000000" id="Shape" sketch:type="MSShapeGroup">
                    <path d="M141.99322,59.0104611 C141.99322,84.412738 119.002646,105.00535 90.642335,105.00535 C62.2820243,105.00535 39.29145,84.412738 39.29145,59.0104611 C39.29145,33.6081843 62.2820243,13.0155721 90.642335,13.0155721 C119.002646,13.0155721 141.99322,33.6081843 141.99322,59.0104611 L141.99322,59.0104611 Z" stroke-width="8.0000307" fill="#000000" transform="translate(90.642335, 59.010461) rotate(-15.550343) translate(-90.642335, -59.010461) "></path>
                    <path d="M342.8172,206.80721 C331.86801,288.0041 225.84505,324.62747 132.39467,303.27884 C42.89378,282.83244 0.25345,223.70763 21.7571,144.66229 C43.77408,63.72989 117.84076,7.91585 208.80389,20.26257 C299.76702,32.60929 353.76638,125.61031 342.8172,206.80721 L342.8172,206.80721 Z" stroke-width="8" fill="url(#radialGradient-9)"></path>
                    <path d="M396.714036,100.803694 C396.714036,124.077058 373.340424,142.943848 344.507613,142.943848 C315.674801,142.943848 292.301208,124.077058 292.301208,100.803694 C292.301208,77.5303299 315.674792,58.6635449 344.507613,58.6635449 C373.340433,58.6635449 396.714036,77.5303299 396.714036,100.803694 L396.714036,100.803694 Z" stroke-width="8.00735091" fill="#000000" transform="translate(344.507622, 100.803696) rotate(64.650006) translate(-344.507622, -100.803696) "></path>
                    <path d="M143.14582,241.07263 C142.0719,249.03662 131.70818,254.21176 120.01253,252.62427 C108.31688,251.03678 99.69638,243.28486 100.77031,235.32087 C101.84424,227.35688 112.6624,218.81165 124.35801,220.39913 C136.05362,221.98661 144.21975,233.10863 143.14583,241.07263 L143.14582,241.07263 Z" stroke-width="8" fill="#000000"></path>
                    <path d="M84.8085,240.06219 C84.8085,240.06219 72.40615,264.15343 96.70325,268.22305 C108.20563,270.15955 120.98675,252.99842 120.98675,252.99842 C120.98675,252.99842 122.48063,269.02724 136.58246,277.95748 C149.1645,285.9253 158.3775,284.64343 167.71446,281.60911 C180.51525,277.44913 182.69692,265.69603 182.69692,265.69603" stroke-width="8"></path>
                    <g transform="translate(67.534910, 180.748635) rotate(25.124878) translate(-67.534910, -180.748635) translate(20.639531, 123.780006)" stroke-width="8.00379494">
                        <path d="M16.0999194,31.5257885 C-7.10949645,61.13964 -2.70702563,94.7856149 17.3989708,106.11083 C32.1618513,114.426399 48.0546682,117.968271 62.3401852,104.919595 C83.0059105,86.0431113 70.9951694,74.0808524 85.5038321,52.9205596 C98.2536265,34.3255106 94.4909029,12.6029397 82.1216881,4.52227212 C67.3318819,-5.13974231 39.3093263,1.91193231 16.0999194,31.5257885 L16.0999194,31.5257885 Z" fill="#000000"></path>
                        <g transform="translate(36.349528, 11.914949)">
                            <path d="M47.7381491,24.7367183 C48.4372851,38.3818724 38.3806946,49.4561972 25.2904039,49.4561972 C12.2001132,49.4561972 1.00869491,38.3818724 0.309558862,24.7367183 C-0.389577187,11.0915643 9.66701333,0.0172347544 22.757304,0.0172347544 C35.8475947,0.0172347544 47.039013,11.0915643 47.7381491,24.7367183 L47.7381491,24.7367183 Z" fill="#FFFFFF"></path>
                            <path d="M11.1738404,31.7359725 C11.1646363,31.7265785 17.9329408,12.0516787 29.279796,14.7887586 C37.6693837,16.8124936 39.1609036,30.8886141 39.1609036,30.8886141"></path>
                        </g>
                    </g>
                    <g transform="translate(227.494845, 215.224585) rotate(-5.915597) translate(-227.494845, -215.224585) translate(171.472143, 150.727792)">
                        <path d="M79.6795644,16.8577558 C107.676012,37.3527712 118.733713,71.1464191 106.410793,100.199785 C92.5101555,132.972911 49.8399572,135.106394 28.6839219,119.55884 C14.2675369,108.964244 17.6711249,82.1481481 8.07606037,67.4297192 C-2.98362989,50.4646168 -1.01014567,33.9842201 9.3543128,15.4769605 C21.8183762,-6.77944468 51.6831505,-3.63725962 79.6795644,16.8577558 L79.6795644,16.8577558 Z" stroke-width="8.00794013" fill="#000000"></path>
                        <g transform="translate(41.921785, 38.871248) rotate(8.006777) translate(-41.921785, -38.871248) translate(13.081742, 12.085738)" stroke-width="8.00792718">
                            <path d="M57.0425944,26.8532914 C57.0425944,41.5790837 44.3904544,53.5304469 28.8012047,53.5304469 C13.211955,53.5304469 0.559815063,41.5790837 0.559815063,26.8532914 C0.559815063,12.1274991 13.211955,0.176121777 28.8012047,0.176121777 C44.3904544,0.176121777 57.0425944,12.1274921 57.0425944,26.8532914 L57.0425944,26.8532914 Z" fill="#FFFFFF"></path>
                            <path d="M8.51545022,31.435545 C8.51545022,31.435545 12.3811364,12.0497366 23.5092691,12.6899455 C37.2993377,13.48329 39.8260635,30.6024029 39.8260635,30.6024029"></path>
                        </g>
                    </g>
                </g>
                <path d="M295.80639,426.36868 C296.18278,451.48371 278.11512,471.39714 247.37432,471.3895 C230.50482,471.3855 222.13962,472.96419 215.19928,471.05928 C209.16831,469.40398 203.5012,464.83023 203.18397,457.90586 C201.9948,431.94956 214.75856,427.72712 230.69185,427.01362 C265.72346,425.44489 257.21078,405.7094 270.45745,405.18841 C278.21,404.88351 293.46529,405.98738 295.80639,426.36868 L295.80639,426.36868 Z" id="Shape" stroke="#000000" stroke-width="8" fill="#000000" sketch:type="MSShapeGroup"></path>
                <path d="M285.08036,359.04574 C284.29726,381.66808 271.1422,406.09709 241.22233,413.20827 C224.80334,417.11065 217.03066,420.58237 209.83132,420.33808 C203.57528,420.12579 196.99198,416.99268 195.06654,410.33602 C187.84898,385.38328 199.28529,378.32359 214.62555,373.94047 C224.58946,371.09349 237.87416,370.23191 241.37167,366.42311 C246.34211,361.01027 243.97881,351.84342 248.23118,343.51905 C250.6895,338.70669 253.81594,333.41266 257.84777,331.75985 C263.57605,329.41163 272.86877,330.30308 277.99244,334.09552 C281.10116,337.8066 287.54172,340.32809 291.32933,334.83189 C292.69324,338.825 295.35536,355.06665 294.76048,364.12311 C290.5555,357.82553 287.83461,355.32183 285.08036,359.04574 L285.08036,359.04574 Z" id="Shape" stroke="#000000" stroke-width="8" fill="#000000" sketch:type="MSShapeGroup"></path>
            </g>
        </g>
    </g>
</svg>