<?xml version="1.0" encoding="UTF-8" standalone="no"?>
<svg width="36px" height="36px" viewBox="0 0 36 36" version="1.1" xmlns="http://www.w3.org/2000/svg" xmlns:xlink="http://www.w3.org/1999/xlink" xmlns:sketch="http://www.bohemiancoding.com/sketch/ns">
    <!-- Generator: Sketch 3.4 (15588) - http://www.bohemiancoding.com/sketch -->
    <title>Shape + Rectangle-path</title>
    <desc>Created with Sketch.</desc>
    <defs></defs>
    <g id="Page-1" stroke="none" stroke-width="1" fill="none" fill-rule="evenodd" sketch:type="MSPage">
        <g id="Shape-+-Rectangle-path" sketch:type="MSLayerGroup" fill="#000000">
            <path d="M18,0 C8.05870588,0 -3.55271368e-15,8.05870588 -3.55271368e-15,18 C-3.55271368e-15,27.9412941 8.05870588,36 18,36 C27.9412941,36 36,27.9412941 36,18 C36,8.05870588 27.9412941,0 18,0 L18,0 L18,0 Z M18,31.7647059 C10.3976471,31.7647059 4.23529412,25.6023529 4.23529412,18 C4.23529412,10.3976471 10.3976471,4.23529412 18,4.23529412 C25.6023529,4.23529412 31.7647059,10.3976471 31.7647059,18 C31.7647059,25.6023529 25.6023529,31.7647059 18,31.7647059 L18,31.7647059 L18,31.7647059 Z" id="Shape" sketch:type="MSShapeGroup"></path>
            <rect id="Rectangle-path" sketch:type="MSShapeGroup" x="10" y="17" width="16" height="2.05714286"></rect>
        </g>
    </g>
</svg>